<svg xmlns="http://www.w3.org/2000/svg" width="192" height="192" viewBox="0 0 96 96"><rect width="96" height="96" fill="#4A47D5"/><g fill="none" stroke="#FFFFFF" stroke-width="4.62" stroke-linecap="round" stroke-linejoin="round" transform="translate(48 48) scale(0.78) translate(-48 -56.75)"><clipPath id="fora"><path clip-rule="evenodd" d="M0 0H96V96H0Z M27.00 58.00 C27.00 39.94 29.94 37.00 48.00 37.00 C66.06 37.00 69.00 39.94 69.00 58.00 C69.00 76.06 66.06 79.00 48.00 79.00 C29.94 79.00 27.00 76.06 27.00 58.00 Z"/></clipPath><g transform="translate(0 -4)"><g clip-path="url(#fora)"><rect x="17.0" y="34.5" width="9" height="23" rx="4.5"/><g transform="translate(96 0) scale(-1 1)"><rect x="17.0" y="34.5" width="9" height="23" rx="4.5"/></g></g><path d="M27.00 58.00 C27.00 39.94 29.94 37.00 48.00 37.00 C66.06 37.00 69.00 39.94 69.00 58.00 C69.00 76.06 66.06 79.00 48.00 79.00 C29.94 79.00 27.00 76.06 27.00 58.00 Z"/><path d="M40.5 53.5V62.5"/><path d="M55.5 53.5V62.5"/><path d="M38 87H58"/></g></g></svg>